<svg width="25" height="25" viewBox="0 0 25 25" fill="none" xmlns="http://www.w3.org/2000/svg">
<path d="M12.5 25C11.994 25 11.5702 24.8286 11.2286 24.4857C10.8857 24.144 10.7143 23.7202 10.7143 23.2143V14.2857H1.78571C1.27976 14.2857 0.855357 14.1143 0.5125 13.7714C0.170834 13.4298 0 13.006 0 12.5C0 11.994 0.170834 11.5696 0.5125 11.2268C0.855357 10.8851 1.27976 10.7143 1.78571 10.7143H10.7143V1.78571C10.7143 1.27976 10.8857 0.855357 11.2286 0.5125C11.5702 0.170834 11.994 0 12.5 0C13.006 0 13.4304 0.170834 13.7732 0.5125C14.1149 0.855357 14.2857 1.27976 14.2857 1.78571V10.7143H23.2143C23.7202 10.7143 24.144 10.8851 24.4857 11.2268C24.8286 11.5696 25 11.994 25 12.5C25 13.006 24.8286 13.4298 24.4857 13.7714C24.144 14.1143 23.7202 14.2857 23.2143 14.2857H14.2857V23.2143C14.2857 23.7202 14.1149 24.144 13.7732 24.4857C13.4304 24.8286 13.006 25 12.5 25Z" fill="#39CC97"/>
</svg>
