<svg width="40" height="40" viewBox="0 0 40 40" fill="none" xmlns="http://www.w3.org/2000/svg">
<mask id="mask0_35_84" style="mask-type:alpha" maskUnits="userSpaceOnUse" x="0" y="0" width="40" height="40">
<rect width="40" height="40" fill="#D9D9D9"/>
</mask>
<g mask="url(#mask0_35_84)">
<path d="M8.33341 31.6667C7.86119 31.6667 7.46508 31.5067 7.14508 31.1867C6.82619 30.8678 6.66675 30.4722 6.66675 30C6.66675 29.5278 6.82619 29.1322 7.14508 28.8133C7.46508 28.4933 7.86119 28.3333 8.33341 28.3333H10.0001V16.6667C10.0001 14.3611 10.6945 12.3122 12.0834 10.52C13.4723 8.72889 15.2779 7.55556 17.5001 7V5.83334C17.5001 5.13889 17.7434 4.54889 18.2301 4.06334C18.7156 3.57667 19.3056 3.33334 20.0001 3.33334C20.6945 3.33334 21.2845 3.57667 21.7701 4.06334C22.2567 4.54889 22.5001 5.13889 22.5001 5.83334V7C24.7223 7.55556 26.5279 8.72889 27.9167 10.52C29.3056 12.3122 30.0001 14.3611 30.0001 16.6667V28.3333H31.6667C32.139 28.3333 32.5345 28.4933 32.8534 28.8133C33.1734 29.1322 33.3334 29.5278 33.3334 30C33.3334 30.4722 33.1734 30.8678 32.8534 31.1867C32.5345 31.5067 32.139 31.6667 31.6667 31.6667H8.33341ZM20.0001 36.6667C19.0834 36.6667 18.299 36.3406 17.6467 35.6883C16.9934 35.035 16.6667 34.25 16.6667 33.3333H23.3334C23.3334 34.25 23.0073 35.035 22.3551 35.6883C21.7017 36.3406 20.9167 36.6667 20.0001 36.6667ZM13.3334 28.3333H26.6667V16.6667C26.6667 14.8333 26.014 13.2639 24.7084 11.9583C23.4029 10.6528 21.8334 10 20.0001 10C18.1667 10 16.5973 10.6528 15.2917 11.9583C13.9862 13.2639 13.3334 14.8333 13.3334 16.6667V28.3333Z" fill="white"/>
</g>
</svg>
